<svg width="100%" height="100%" viewBox="0 0 472 102" version="1.1" xmlns="http://www.w3.org/2000/svg" xml:space="preserve" fill-rule="evenodd" clip-rule="evenodd" stroke-linejoin="round" stroke-miterlimit="1.414"><g id="Layer 1" transform="matrix(.99892 0 0 .98822 -6.17 -15.29)"><clipPath id="_clip1"><path d="M6.218 15.477h101.295v103.21H6.218z"/></clipPath><g clip-path="url(#_clip1)"><path d="M73.534 101.145c-2.672 2.725-5.717 4.676-9.136 5.85-3.42 1.177-6.947 1.764-10.578 1.764H31.38V36.633h17.952c6.196 0 11.405.88 15.627 2.644 4.22 1.763 7.612 4.303 10.177 7.613 2.564 3.315 4.407 7.294 5.53 11.942 1.12 4.648 1.682 9.857 1.682 15.627 0 6.305-.802 11.647-2.405 16.027-1.603 4.383-3.74 7.934-6.41 10.658m21.076 12.26c4.328-5.127 7.56-11.218 9.697-18.27 2.136-7.052 3.206-14.746 3.206-23.08 0-9.51-1.31-17.79-3.927-24.843-2.62-7.052-6.25-12.927-10.9-17.63C88.04 24.88 82.535 21.354 76.18 19c-6.36-2.348-13.224-3.525-20.597-3.525H6.218v103.21h83.104c1.91-1.608 3.675-3.368 5.29-5.28" fill="#000" fill-rule="nonzero"/></g><path d="M168.74 43.686h.318l14.427 41.992h-29.653l14.907-41.992zm-21.48 60.745h42.796l4.84 14.257h25.74L182.04 15.477h-25.803l-39.03 103.21h25.034l5.02-14.256zM258.333 49.616h.32l24.128 69.07h27.2l24.165-69.87h.32v69.87h23.56V15.477h-35.42L297.28 94.174h-.32l-26.766-78.696h-35.422v103.21h23.56v-69.07zM391.192 76.016h.204l26.514 42.67h19.954V51.863h-15.046v49.025h-.205l-30.5-49.025h-15.966v66.825h15.045v-42.67zM461.554 78.8c-5.39 0-9.758-4.37-9.758-9.76 0-5.387 4.37-9.756 9.758-9.756 5.39 0 9.758 4.37 9.758 9.757 0 5.39-4.37 9.76-9.758 9.76m0-26.896c-1.17 0-2.312.117-3.416.34-7.828 1.584-13.72 8.503-13.72 16.797 0 9.462 7.67 17.136 17.136 17.136s17.135-7.674 17.135-17.135c0-9.463-7.67-17.136-17.136-17.136" fill="#000" fill-rule="nonzero"/></g></svg>